<svg width="16" height="16" viewBox="0 0 16 16" fill="none" xmlns="http://www.w3.org/2000/svg">
<path d="M3.00001 11C2.00001 11.84 1.66667 14.3333 1.66667 14.3333C1.66667 14.3333 4.16001 14 5.00001 13C5.47334 12.44 5.46667 11.58 4.94001 11.06C4.68088 10.8126 4.33953 10.6697 3.98149 10.6587C3.62344 10.6476 3.27392 10.7691 3.00001 11Z" stroke="#FAFAFA" stroke-width="1.33333" stroke-linecap="round" stroke-linejoin="round"/>
<path d="M8 9.99996L6 7.99996C6.35476 7.07958 6.80147 6.19734 7.33333 5.36663C8.11012 4.12462 9.19175 3.10199 10.4753 2.39602C11.7589 1.69005 13.2018 1.32421 14.6667 1.3333C14.6667 3.14663 14.1467 6.3333 10.6667 8.66663C9.82459 9.19911 8.93123 9.64579 8 9.99996Z" stroke="#FAFAFA" stroke-width="1.33333" stroke-linecap="round" stroke-linejoin="round"/>
<path d="M6.00001 7.99997H2.66667C2.66667 7.99997 3.03334 5.97997 4.00001 5.33331C5.08001 4.61331 7.33334 5.33331 7.33334 5.33331" stroke="#FAFAFA" stroke-width="1.33333" stroke-linecap="round" stroke-linejoin="round"/>
<path d="M8 9.99996V13.3333C8 13.3333 10.02 12.9666 10.6667 12C11.3867 10.92 10.6667 8.66663 10.6667 8.66663" stroke="#FAFAFA" stroke-width="1.33333" stroke-linecap="round" stroke-linejoin="round"/>
</svg>
